<svg xmlns="http://www.w3.org/2000/svg" xmlns:xlink="http://www.w3.org/1999/xlink" preserveAspectRatio="xMidYMid" width="63.563" height="57.969" viewBox="0 0 63.563 57.969">
  <defs>
    <style>
      .cls-1 {
        fill: #fff;
        fill-rule: evenodd;
      }
    </style>
  </defs>
  <path d="M62.178,56.293 L61.864,56.607 C60.957,57.513 59.766,57.967 58.575,57.967 C57.384,57.967 56.193,57.513 55.287,56.607 L40.379,41.500 C39.716,41.945 39.035,42.365 38.327,42.740 C34.888,44.556 31.256,45.477 27.529,45.477 C27.217,45.477 26.906,45.471 26.591,45.456 C23.501,45.327 20.530,44.598 17.810,43.334 L19.138,41.178 C21.490,42.229 24.045,42.839 26.700,42.950 C26.980,42.963 27.255,42.968 27.529,42.968 C30.843,42.968 34.081,42.145 37.153,40.523 C37.643,40.263 38.117,39.977 38.583,39.680 C38.941,39.451 39.292,39.211 39.636,38.961 C39.976,38.712 40.309,38.454 40.633,38.186 L42.399,39.975 L57.067,54.839 C57.897,55.669 59.255,55.668 60.089,54.833 L60.404,54.519 C61.239,53.685 61.239,52.326 60.404,51.492 L45.681,36.572 L43.908,34.775 C43.992,34.664 44.068,34.546 44.150,34.433 C44.317,34.202 44.487,33.973 44.644,33.735 C44.659,33.713 44.676,33.692 44.691,33.669 C44.914,33.328 45.121,32.983 45.322,32.637 C45.452,32.414 45.569,32.187 45.689,31.962 C47.102,29.313 47.892,26.504 48.017,23.582 C48.249,18.183 46.342,13.015 42.648,9.032 C38.949,5.047 33.904,2.725 28.439,2.495 C28.145,2.482 27.851,2.476 27.559,2.476 C17.952,2.476 9.756,9.114 7.639,18.138 C7.356,19.341 7.178,20.585 7.123,21.863 C7.092,22.584 7.102,23.300 7.147,24.010 C7.188,24.665 7.259,25.314 7.363,25.956 C7.500,26.807 7.694,27.644 7.939,28.465 C8.486,30.300 9.295,32.052 10.352,33.673 C10.011,33.553 9.651,33.483 9.278,33.483 L7.319,33.483 C6.454,31.978 5.785,30.210 5.328,28.465 C5.113,27.642 4.948,26.804 4.827,25.956 C4.631,24.579 4.555,23.175 4.616,21.755 C5.154,9.221 15.888,-0.530 28.545,-0.012 C34.675,0.247 40.336,2.853 44.487,7.326 C48.641,11.804 50.785,17.616 50.524,23.690 C50.498,24.300 50.437,24.904 50.361,25.504 C50.020,28.172 49.193,30.744 47.880,33.188 C47.647,33.621 47.400,34.051 47.137,34.476 L62.184,49.724 C63.991,51.531 63.991,54.480 62.178,56.293 ZM-0.005,27.212 C-0.005,26.519 0.556,25.957 1.249,25.957 L2.826,25.957 L2.840,26.241 C2.949,27.005 3.098,27.964 3.269,28.466 L1.249,28.466 C0.556,28.466 -0.005,27.905 -0.005,27.212 ZM17.465,31.456 L16.099,33.675 C16.011,33.585 15.922,33.498 15.837,33.406 C14.997,32.501 14.278,31.476 13.683,30.473 L16.680,30.473 C16.927,30.975 17.185,31.139 17.465,31.456 ZM22.577,21.191 C22.577,21.884 22.015,22.446 21.322,22.446 L14.154,22.446 L11.644,22.446 L9.780,22.446 C9.087,22.446 8.526,21.884 8.526,21.191 C8.526,20.498 9.087,19.937 9.780,19.937 L11.887,19.937 L14.445,19.937 L21.322,19.937 C22.015,19.937 22.577,20.498 22.577,21.191 ZM28.246,6.950 C32.498,7.130 36.424,8.936 39.303,12.039 C42.185,15.147 43.673,19.179 43.492,23.394 C43.428,24.884 43.142,26.333 42.653,27.733 C42.334,28.643 41.932,29.533 41.437,30.397 C41.268,30.692 41.091,30.985 40.901,31.274 C39.433,33.510 37.404,35.355 35.031,36.612 C32.647,37.871 30.128,38.510 27.543,38.510 C27.325,38.510 27.107,38.505 26.888,38.495 C25.012,38.416 23.197,38.018 21.508,37.331 L22.643,35.490 L23.865,35.490 C24.875,35.992 25.924,35.944 26.999,35.989 C27.185,35.998 27.364,36.001 27.543,36.001 C28.760,36.001 29.961,35.825 31.138,35.488 C32.062,35.224 32.970,34.863 33.858,34.395 C34.117,34.257 34.372,34.110 34.621,33.956 C36.292,32.925 37.728,31.536 38.803,29.898 C39.204,29.286 39.545,28.656 39.837,28.016 L31.952,16.286 L25.425,27.821 C25.202,28.215 24.785,28.466 24.333,28.466 L15.456,28.466 L12.721,28.466 L10.056,28.466 C9.992,28.466 9.921,28.087 9.863,27.893 C9.671,27.248 9.523,26.459 9.407,25.957 L11.966,25.957 L14.543,25.957 L23.602,25.957 L30.769,13.298 C30.983,12.920 31.378,12.679 31.813,12.662 C32.258,12.649 32.660,12.855 32.902,13.216 L40.797,24.971 C40.897,24.416 40.960,23.854 40.985,23.286 C41.137,19.746 39.886,16.358 37.463,13.745 C35.037,11.130 31.726,9.607 28.141,9.456 C27.947,9.448 27.755,9.445 27.563,9.445 C21.914,9.445 17.008,12.913 15.051,17.930 L12.388,17.930 C14.516,11.408 20.908,6.647 28.246,6.950 ZM1.751,35.490 L8.558,35.490 L9.278,35.490 C9.767,35.490 10.211,35.773 10.416,36.216 L11.853,39.312 L13.198,42.211 L13.924,41.033 L15.246,38.886 L17.609,35.049 L18.938,32.892 L19.752,31.571 C19.980,31.200 20.385,30.975 20.820,30.975 L31.861,30.975 C32.554,30.975 33.115,31.536 33.115,32.229 C33.115,32.922 32.554,33.483 31.861,33.483 L21.521,33.483 L21.010,34.312 L19.693,36.451 L17.342,40.266 L16.025,42.405 L14.110,45.514 C13.881,45.886 13.476,46.111 13.042,46.111 C13.018,46.111 12.993,46.110 12.968,46.109 C12.507,46.081 12.098,45.803 11.904,45.385 L8.477,37.998 L1.751,37.998 C1.058,37.998 0.496,37.437 0.496,36.744 C0.496,36.051 1.058,35.490 1.751,35.490 Z" class="cls-1"/>
</svg>
