<svg xmlns="http://www.w3.org/2000/svg" xmlns:xlink="http://www.w3.org/1999/xlink" preserveAspectRatio="xMidYMid" width="63" height="61.5" viewBox="0 0 63 61.5">
  <defs>
    <style>
      .cls-1 {
        fill: #8bcfb5;
        fill-rule: evenodd;
      }
    </style>
  </defs>
  <path d="M62.644,22.318 L40.000,45.497 L40.000,60.249 C40.000,60.940 39.440,61.500 38.750,61.500 L24.500,61.500 C23.812,61.500 23.253,60.943 23.250,60.255 L23.181,45.465 L0.361,22.347 C0.130,22.113 -0.000,21.797 -0.000,21.468 L-0.000,15.213 C-0.000,14.522 0.560,13.962 1.250,13.962 L8.348,13.962 C8.656,14.503 9.175,14.926 10.000,15.141 L10.000,16.464 L2.500,16.464 L2.500,20.955 L25.318,44.070 C25.547,44.303 25.677,44.616 25.678,44.943 L25.744,58.998 L37.500,58.998 L37.500,44.987 C37.500,44.660 37.628,44.346 37.856,44.112 L60.500,20.934 L60.500,16.464 L55.000,16.464 L55.000,13.962 L61.750,13.962 C62.440,13.962 63.000,14.522 63.000,15.213 L63.000,21.444 C63.000,21.771 62.872,22.084 62.644,22.318 ZM59.574,9.342 C59.028,9.342 58.585,8.900 58.585,8.353 L58.585,2.056 L57.884,2.238 C57.780,2.265 57.636,2.290 57.532,2.290 C57.064,2.290 56.662,1.900 56.662,1.432 C56.662,1.028 56.921,0.690 57.324,0.573 L58.612,0.196 C58.989,0.092 59.275,0.026 59.548,0.026 L59.574,0.026 C60.120,0.026 60.562,0.469 60.562,1.016 L60.562,8.353 C60.562,8.900 60.120,9.342 59.574,9.342 ZM51.156,11.205 C51.533,11.100 51.819,11.035 52.092,11.035 L52.118,11.035 C52.664,11.035 53.106,11.478 53.106,12.024 L53.106,19.362 C53.106,19.909 52.664,20.351 52.118,20.351 C51.572,20.351 51.130,19.909 51.130,19.362 L51.130,13.065 L50.428,13.247 C50.324,13.273 50.181,13.299 50.077,13.299 C49.609,13.299 49.206,12.909 49.206,12.441 C49.206,12.037 49.466,11.699 49.869,11.582 L51.156,11.205 ZM51.579,9.420 C49.147,9.420 47.548,7.378 47.548,4.737 L47.548,4.710 C47.548,2.069 49.187,0.001 51.604,0.001 C54.010,0.001 55.635,2.043 55.635,4.684 L55.635,4.710 C55.635,7.352 54.010,9.420 51.579,9.420 ZM53.581,4.710 C53.581,3.058 52.775,1.809 51.579,1.809 C50.383,1.809 49.603,3.019 49.603,4.684 L49.603,4.710 C49.603,6.376 50.396,7.612 51.604,7.612 C52.814,7.612 53.581,6.389 53.581,4.737 L53.581,4.710 ZM48.179,15.719 C48.179,18.360 46.554,20.429 44.123,20.429 C41.692,20.429 40.093,18.386 40.093,15.745 L40.093,15.719 C40.093,13.078 41.731,11.009 44.149,11.009 C46.554,11.009 48.179,13.052 48.179,15.693 L48.179,15.719 ZM46.125,15.719 C46.125,14.067 45.319,12.818 44.123,12.818 C42.927,12.818 42.147,14.028 42.147,15.693 L42.147,15.719 C42.147,17.384 42.940,18.621 44.149,18.621 C45.358,18.621 46.125,17.398 46.125,15.745 L46.125,15.719 ZM44.663,9.342 C44.116,9.342 43.674,8.900 43.674,8.353 L43.674,2.056 L42.972,2.238 C42.868,2.265 42.725,2.290 42.621,2.290 C42.153,2.290 41.751,1.900 41.751,1.432 C41.751,1.028 42.010,0.690 42.413,0.573 L43.700,0.196 C44.077,0.092 44.364,0.026 44.636,0.026 L44.663,0.026 C45.209,0.026 45.650,0.469 45.650,1.016 L45.650,8.353 C45.650,8.900 45.209,9.342 44.663,9.342 ZM36.667,9.420 C34.236,9.420 32.637,7.378 32.637,4.737 L32.637,4.710 C32.637,2.069 34.275,0.001 36.693,0.001 C39.099,0.001 40.724,2.043 40.724,4.684 L40.724,4.710 C40.724,7.352 39.099,9.420 36.667,9.420 ZM38.669,4.710 C38.669,3.058 37.864,1.809 36.667,1.809 C35.471,1.809 34.691,3.019 34.691,4.684 L34.691,4.710 C34.691,6.376 35.484,7.612 36.693,7.612 C37.903,7.612 38.669,6.389 38.669,4.737 L38.669,4.710 ZM35.173,31.360 C34.627,31.360 34.185,30.917 34.185,30.371 L34.185,24.074 L33.483,24.256 C33.379,24.282 33.236,24.308 33.132,24.308 C32.664,24.308 32.261,23.917 32.261,23.449 C32.261,23.046 32.521,22.708 32.924,22.590 L34.211,22.213 C34.588,22.109 34.874,22.044 35.147,22.044 L35.173,22.044 C35.719,22.044 36.161,22.486 36.161,23.033 L36.161,30.371 C36.161,30.917 35.719,31.360 35.173,31.360 ZM42.115,22.018 C44.520,22.018 46.145,24.061 46.145,26.702 L46.145,26.728 C46.145,29.369 44.520,31.438 42.089,31.438 C39.657,31.438 38.059,29.395 38.059,26.754 L38.059,26.728 C38.059,24.087 39.697,22.018 42.115,22.018 ZM40.113,26.728 C40.113,28.393 40.905,29.629 42.115,29.629 C43.324,29.629 44.091,28.406 44.091,26.754 L44.091,26.728 C44.091,25.076 43.285,23.827 42.089,23.827 C40.893,23.827 40.113,25.037 40.113,26.702 L40.113,26.728 ZM37.207,20.351 C36.661,20.351 36.219,19.909 36.219,19.362 L36.219,13.065 L35.517,13.247 C35.413,13.273 35.270,13.299 35.166,13.299 C34.698,13.299 34.295,12.909 34.295,12.441 C34.295,12.037 34.555,11.699 34.958,11.582 L36.245,11.205 C36.622,11.100 36.908,11.035 37.181,11.035 L37.207,11.035 C37.753,11.035 38.195,11.478 38.195,12.024 L38.195,19.362 C38.195,19.909 37.753,20.351 37.207,20.351 ZM28.725,22.213 C29.102,22.109 29.388,22.044 29.661,22.044 L29.686,22.044 C30.233,22.044 30.675,22.486 30.675,23.033 L30.675,30.371 C30.675,30.917 30.233,31.360 29.686,31.360 C29.141,31.360 28.699,30.917 28.699,30.371 L28.699,24.074 L27.997,24.256 C27.893,24.282 27.749,24.308 27.646,24.308 C27.178,24.308 26.774,23.917 26.774,23.449 C26.774,23.046 27.035,22.708 27.437,22.590 L28.725,22.213 ZM33.268,15.719 C33.268,18.360 31.643,20.429 29.212,20.429 C26.781,20.429 25.182,18.386 25.182,15.745 L25.182,15.719 C25.182,13.078 26.820,11.009 29.238,11.009 C31.643,11.009 33.268,13.052 33.268,15.693 L33.268,15.719 ZM31.214,15.719 C31.214,14.067 30.408,12.818 29.212,12.818 C28.016,12.818 27.236,14.028 27.236,15.693 L27.236,15.719 C27.236,17.384 28.029,18.621 29.238,18.621 C30.447,18.621 31.214,17.398 31.214,15.745 L31.214,15.719 ZM29.751,9.342 C29.205,9.342 28.763,8.900 28.763,8.353 L28.763,2.056 L28.061,2.238 C27.957,2.265 27.814,2.290 27.710,2.290 C27.242,2.290 26.839,1.900 26.839,1.432 C26.839,1.028 27.099,0.690 27.502,0.573 L28.789,0.196 C29.166,0.092 29.452,0.026 29.725,0.026 L29.751,0.026 C30.297,0.026 30.739,0.469 30.739,1.016 L30.739,8.353 C30.739,8.900 30.297,9.342 29.751,9.342 ZM21.756,9.420 C19.325,9.420 17.726,7.378 17.726,4.737 L17.726,4.710 C17.726,2.069 19.364,0.001 21.782,0.001 C24.187,0.001 25.812,2.043 25.812,4.684 L25.812,4.710 C25.812,7.352 24.187,9.420 21.756,9.420 ZM23.758,4.710 C23.758,3.058 22.952,1.809 21.756,1.809 C20.560,1.809 19.780,3.019 19.780,4.684 L19.780,4.710 C19.780,6.376 20.573,7.612 21.782,7.612 C22.991,7.612 23.758,6.389 23.758,4.737 L23.758,4.710 ZM25.748,26.702 L25.748,26.728 C25.748,29.369 24.123,31.438 21.692,31.438 C19.260,31.438 17.662,29.395 17.662,26.754 L17.662,26.728 C17.662,24.087 19.300,22.018 21.718,22.018 C24.123,22.018 25.748,24.061 25.748,26.702 ZM19.716,26.702 L19.716,26.728 C19.716,28.393 20.509,29.629 21.718,29.629 C22.927,29.629 23.694,28.406 23.694,26.754 L23.694,26.728 C23.694,25.076 22.888,23.827 21.692,23.827 C20.496,23.827 19.716,25.037 19.716,26.702 ZM23.778,15.693 L23.778,15.719 C23.778,18.360 22.153,20.429 19.722,20.429 C17.291,20.429 15.692,18.386 15.692,15.745 L15.692,15.719 C15.692,13.078 17.330,11.009 19.748,11.009 C22.153,11.009 23.778,13.052 23.778,15.693 ZM17.746,15.693 L17.746,15.719 C17.746,17.384 18.539,18.621 19.748,18.621 C20.957,18.621 21.724,17.398 21.724,15.745 L21.724,15.719 C21.724,14.067 20.918,12.818 19.722,12.818 C18.526,12.818 17.746,14.028 17.746,15.693 ZM11.844,11.205 C12.221,11.100 12.507,11.035 12.780,11.035 L12.806,11.035 C13.352,11.035 13.794,11.478 13.794,12.024 L13.794,19.362 C13.794,19.909 13.352,20.351 12.806,20.351 C12.260,20.351 11.818,19.909 11.818,19.362 L11.818,13.065 L11.116,13.247 C11.012,13.273 10.869,13.299 10.765,13.299 C10.297,13.299 9.894,12.909 9.894,12.441 C9.894,12.037 10.154,11.699 10.557,11.582 L11.844,11.205 ZM12.266,9.420 C9.835,9.420 8.236,7.378 8.236,4.737 L8.236,4.710 C8.236,2.069 9.874,0.001 12.292,0.001 C14.697,0.001 16.322,2.043 16.322,4.684 L16.322,4.710 C16.322,7.352 14.697,9.420 12.266,9.420 ZM14.269,4.710 C14.269,3.058 13.462,1.809 12.266,1.809 C11.070,1.809 10.290,3.019 10.290,4.684 L10.290,4.710 C10.290,6.376 11.083,7.612 12.292,7.612 C13.501,7.612 14.269,6.389 14.269,4.737 L14.269,4.710 ZM5.351,9.342 C4.804,9.342 4.362,8.900 4.362,8.353 L4.362,2.056 L3.660,2.238 C3.556,2.265 3.413,2.290 3.309,2.290 C2.841,2.290 2.438,1.900 2.438,1.432 C2.438,1.028 2.698,0.690 3.101,0.573 L4.388,0.196 C4.765,0.092 5.051,0.026 5.324,0.026 L5.351,0.026 C5.897,0.026 6.338,0.469 6.338,1.016 L6.338,8.353 C6.338,8.900 5.897,9.342 5.351,9.342 Z" class="cls-1"/>
</svg>
