<svg xmlns="http://www.w3.org/2000/svg" xmlns:xlink="http://www.w3.org/1999/xlink" preserveAspectRatio="xMidYMid" width="63.313" height="64" viewBox="0 0 63.313 64">
  <defs>
    <style>
      .cls-1 {
        fill: #5f6764;
        fill-rule: evenodd;
      }
    </style>
  </defs>
  <path d="M57.136,36.060 C53.091,40.107 47.669,42.243 42.177,42.243 C39.227,42.243 36.257,41.627 33.468,40.359 L23.450,41.245 C23.083,41.280 22.717,41.145 22.455,40.883 C22.193,40.621 22.061,40.257 22.094,39.888 L22.981,29.869 C19.352,21.884 21.058,12.409 27.277,6.187 C31.265,2.198 36.567,0.001 42.206,0.001 C47.846,0.001 53.148,2.198 57.136,6.187 C61.123,10.177 63.320,15.481 63.320,21.124 C63.320,26.766 61.123,32.071 57.136,36.060 ZM55.366,7.958 C48.110,0.698 36.303,0.698 29.046,7.958 C23.493,13.514 22.023,22.014 25.388,29.109 C25.484,29.311 25.524,29.534 25.504,29.756 L24.719,38.619 L33.580,37.835 C33.617,37.832 33.654,37.830 33.691,37.830 C33.876,37.830 34.059,37.871 34.227,37.951 C41.319,41.316 49.813,39.845 55.366,34.290 C62.622,27.030 62.622,15.218 55.366,7.958 ZM55.159,20.741 C54.612,20.741 54.170,20.298 54.170,19.751 L54.170,13.449 L53.467,13.631 C53.363,13.657 53.220,13.683 53.115,13.683 C52.647,13.683 52.244,13.293 52.244,12.824 C52.244,12.420 52.504,12.082 52.907,11.965 L54.196,11.587 C54.573,11.483 54.860,11.418 55.133,11.418 L55.159,11.418 C55.706,11.418 56.148,11.860 56.148,12.407 L56.148,19.751 C56.148,20.298 55.706,20.741 55.159,20.741 ZM47.155,20.819 C44.721,20.819 43.120,18.775 43.120,16.131 L43.120,16.105 C43.120,13.462 44.760,11.392 47.181,11.392 C49.589,11.392 51.216,13.436 51.216,16.079 L51.216,16.105 C51.216,18.749 49.589,20.819 47.155,20.819 ZM49.159,16.105 C49.159,14.452 48.352,13.202 47.155,13.202 C45.957,13.202 45.176,14.413 45.176,16.079 L45.176,16.105 C45.176,17.772 45.970,19.009 47.181,19.009 C48.391,19.009 49.159,17.785 49.159,16.131 L49.159,16.105 ZM43.901,23.425 L43.901,30.769 C43.901,31.316 43.458,31.759 42.912,31.759 C42.365,31.759 41.922,31.316 41.922,30.769 L41.922,24.467 L41.220,24.649 C41.116,24.675 40.972,24.701 40.868,24.701 C40.400,24.701 39.996,24.311 39.996,23.842 C39.996,23.438 40.257,23.100 40.660,22.982 L41.949,22.605 C42.326,22.501 42.612,22.435 42.886,22.435 L42.912,22.435 C43.458,22.435 43.901,22.878 43.901,23.425 ZM37.654,20.819 C35.220,20.819 33.619,18.775 33.619,16.131 L33.619,16.105 C33.619,13.462 35.259,11.392 37.680,11.392 C40.088,11.392 41.715,13.436 41.715,16.079 L41.715,16.105 C41.715,18.749 40.088,20.819 37.654,20.819 ZM39.658,16.105 C39.658,14.452 38.851,13.202 37.654,13.202 C36.456,13.202 35.675,14.413 35.675,16.079 L35.675,16.105 C35.675,17.772 36.469,19.009 37.680,19.009 C38.890,19.009 39.658,17.785 39.658,16.131 L39.658,16.105 ZM38.968,27.097 L38.968,27.123 C38.968,29.767 37.341,31.837 34.907,31.837 C32.474,31.837 30.873,29.793 30.873,27.149 L30.873,27.123 C30.873,24.480 32.513,22.409 34.933,22.409 C37.341,22.409 38.968,24.454 38.968,27.097 ZM32.929,27.097 L32.929,27.123 C32.929,28.790 33.723,30.027 34.933,30.027 C36.144,30.027 36.912,28.803 36.912,27.149 L36.912,27.123 C36.912,25.470 36.105,24.220 34.907,24.220 C33.710,24.220 32.929,25.430 32.929,27.097 ZM30.730,20.741 C30.183,20.741 29.740,20.298 29.740,19.751 L29.740,13.449 L29.038,13.631 C28.934,13.657 28.790,13.683 28.686,13.683 C28.218,13.683 27.814,13.293 27.814,12.824 C27.814,12.420 28.074,12.082 28.478,11.965 L29.767,11.587 C30.144,11.483 30.430,11.418 30.704,11.418 L30.730,11.418 C31.276,11.418 31.719,11.860 31.719,12.407 L31.719,19.751 C31.719,20.298 31.276,20.741 30.730,20.741 ZM49.862,22.409 C52.270,22.409 53.897,24.454 53.897,27.097 L53.897,27.123 C53.897,29.767 52.270,31.837 49.836,31.837 C47.402,31.837 45.801,29.793 45.801,27.149 L45.801,27.123 C45.801,24.480 47.441,22.409 49.862,22.409 ZM47.858,27.123 C47.858,28.790 48.652,30.027 49.862,30.027 C51.073,30.027 51.840,28.803 51.840,27.149 L51.840,27.123 C51.840,25.470 51.033,24.220 49.836,24.220 C48.639,24.220 47.858,25.430 47.858,27.097 L47.858,27.123 ZM7.141,31.878 L7.141,34.366 C7.141,34.569 6.963,34.788 6.869,34.967 L2.691,42.719 C2.428,43.223 2.364,43.717 2.521,43.976 C2.677,44.235 3.110,44.467 3.677,44.467 L6.132,44.467 C6.823,44.467 7.642,44.871 7.642,45.563 L7.642,50.903 C7.642,52.368 8.575,53.983 10.040,53.983 L16.415,53.983 C17.106,53.983 17.653,54.121 17.653,54.813 L17.653,61.495 L36.175,61.495 L36.175,45.416 C36.175,45.070 36.303,44.740 36.555,44.503 C36.823,44.251 37.062,43.987 37.309,43.718 C38.263,43.924 39.244,44.070 40.215,44.156 C39.739,44.784 39.178,45.384 38.678,45.946 L38.678,62.180 C38.678,62.872 38.088,63.999 37.397,63.999 L16.415,63.999 C15.724,63.999 15.150,62.872 15.150,62.180 L15.150,56.487 L10.040,56.487 C7.195,56.487 5.139,53.749 5.139,50.903 L5.139,46.971 L3.677,46.971 C2.205,46.971 1.067,46.302 0.444,45.272 C-0.179,44.242 -0.080,42.824 0.603,41.518 L4.638,34.058 L4.638,31.878 C4.638,22.088 11.705,13.939 21.042,12.342 C20.675,13.241 20.298,14.159 20.046,15.094 C12.563,17.004 7.141,23.804 7.141,31.878 Z" class="cls-1"/>
</svg>
