<svg xmlns="http://www.w3.org/2000/svg" xmlns:xlink="http://www.w3.org/1999/xlink" preserveAspectRatio="xMidYMid" width="62.312" height="61.5" viewBox="0 0 62.312 61.5">
  <defs>
    <style>
      .cls-1 {
        fill: #8bcfb5;
        fill-rule: evenodd;
      }
    </style>
  </defs>
  <path d="M61.785,23.838 L44.046,36.740 L50.821,57.514 C50.989,58.028 50.805,58.590 50.365,58.908 C49.926,59.225 49.331,59.225 48.891,58.908 L41.467,53.556 L41.467,51.288 C41.467,50.973 41.421,50.668 41.336,50.380 L47.246,54.641 L41.378,36.651 C41.211,36.139 41.394,35.578 41.831,35.260 L57.203,24.079 L38.212,24.079 C37.668,24.079 37.186,23.731 37.018,23.217 L31.157,5.283 L25.295,23.217 C25.127,23.731 24.645,24.079 24.101,24.079 L5.112,24.079 L20.482,35.254 C20.919,35.571 21.102,36.132 20.935,36.644 L15.067,54.670 L20.425,50.797 C20.401,50.958 20.384,51.121 20.384,51.288 L20.384,53.911 L13.424,58.943 C13.204,59.102 12.944,59.181 12.686,59.181 C12.427,59.181 12.168,59.102 11.949,58.944 C11.509,58.626 11.324,58.064 11.492,57.550 L18.268,36.735 L0.529,23.838 C0.091,23.519 -0.091,22.957 0.077,22.444 C0.245,21.931 0.727,21.584 1.270,21.584 L23.190,21.584 L29.963,0.861 C30.131,0.347 30.613,-0.001 31.157,-0.001 C31.700,-0.001 32.182,0.347 32.351,0.861 L39.124,21.584 L61.043,21.584 C61.586,21.584 62.067,21.931 62.236,22.444 C62.405,22.956 62.222,23.519 61.785,23.838 ZM34.941,41.044 L26.910,41.044 C26.217,41.044 25.655,40.485 25.655,39.796 C25.655,39.107 26.217,38.549 26.910,38.549 L34.941,38.549 C35.634,38.549 36.196,39.107 36.196,39.796 C36.196,40.485 35.634,41.044 34.941,41.044 ZM31.929,30.565 L30.385,30.565 L29.922,30.565 C29.228,30.565 28.667,30.007 28.667,29.318 C28.667,28.629 29.228,28.070 29.922,28.070 L33.184,28.070 C33.877,28.070 34.439,28.629 34.439,29.318 L34.439,35.056 L34.941,35.056 C35.634,35.056 36.196,35.614 36.196,36.303 C36.196,36.992 35.634,37.551 34.941,37.551 L26.910,37.551 C26.217,37.551 25.655,36.992 25.655,36.303 C25.655,35.614 26.217,35.056 26.910,35.056 L28.416,35.056 L28.416,33.559 C28.416,32.870 28.977,32.312 29.671,32.312 C30.364,32.312 30.925,32.870 30.925,33.559 L30.925,35.056 L31.929,35.056 L31.929,33.892 L31.929,30.565 ZM23.689,51.522 L25.404,51.522 L25.404,43.190 C25.404,42.501 26.092,42.042 26.785,42.042 L35.066,42.042 C35.759,42.042 36.447,42.501 36.447,43.190 L36.447,51.522 L38.162,51.522 C38.855,51.522 39.459,52.096 39.459,52.785 L39.459,60.270 C39.459,60.959 38.855,61.501 38.162,61.501 L35.066,61.501 L26.785,61.501 L23.689,61.501 C22.995,61.501 22.392,60.959 22.392,60.270 L22.392,52.785 C22.392,52.096 22.995,51.522 23.689,51.522 ZM33.937,44.536 L27.914,44.536 L27.914,51.522 L33.937,51.522 L33.937,44.536 ZM24.902,59.007 L25.404,59.007 L26.910,59.007 L34.941,59.007 L36.447,59.007 L36.949,59.007 L36.949,54.017 L36.447,54.017 L34.941,54.017 L33.937,54.017 L27.914,54.017 L26.910,54.017 L25.404,54.017 L24.902,54.017 L24.902,59.007 Z" class="cls-1"/>
</svg>
