<svg xmlns="http://www.w3.org/2000/svg" xmlns:xlink="http://www.w3.org/1999/xlink" preserveAspectRatio="xMidYMid" width="62.5" height="62.5" viewBox="0 0 62.5 62.5">
  <defs>
    <style>
      .cls-1 {
        fill: #5f6764;
        fill-rule: evenodd;
      }
    </style>
  </defs>
  <path d="M57.750,62.500 L4.750,62.500 C2.131,62.500 0.000,60.369 0.000,57.750 L0.000,12.250 C0.000,9.631 2.131,7.500 4.750,7.500 L15.250,7.500 L15.250,1.250 C15.250,0.560 15.810,0.000 16.500,0.000 C17.190,0.000 17.750,0.560 17.750,1.250 L17.750,7.500 L30.250,7.500 L30.250,1.250 C30.250,0.560 30.810,0.000 31.500,0.000 C32.190,0.000 32.750,0.560 32.750,1.250 L32.750,7.500 L45.250,7.500 L45.250,1.250 C45.250,0.560 45.810,0.000 46.500,0.000 C47.190,0.000 47.750,0.560 47.750,1.250 L47.750,7.500 L57.750,7.500 C60.369,7.500 62.500,9.631 62.500,12.250 L62.500,57.750 C62.500,60.369 60.369,62.500 57.750,62.500 ZM16.500,17.500 C15.810,17.500 15.250,16.940 15.250,16.250 L15.250,14.142 C14.529,14.572 14.040,15.351 14.040,16.250 C14.040,17.607 15.143,18.710 16.500,18.710 C17.857,18.710 18.960,17.607 18.960,16.250 C18.960,15.351 18.471,14.572 17.750,14.142 L17.750,16.250 C17.750,16.940 17.190,17.500 16.500,17.500 ZM31.500,17.500 C30.810,17.500 30.250,16.940 30.250,16.250 L30.250,14.142 C29.529,14.572 29.040,15.351 29.040,16.250 C29.040,17.607 30.143,18.710 31.500,18.710 C32.857,18.710 33.960,17.607 33.960,16.250 C33.960,15.351 33.471,14.572 32.750,14.142 L32.750,16.250 C32.750,16.940 32.190,17.500 31.500,17.500 ZM46.500,17.500 C45.810,17.500 45.250,16.940 45.250,16.250 L45.250,14.007 C44.391,14.391 43.790,15.250 43.790,16.250 C43.790,17.607 44.893,18.710 46.250,18.710 C47.607,18.710 48.710,17.607 48.710,16.250 C48.710,15.460 48.330,14.764 47.750,14.314 L47.750,16.250 C47.750,16.940 47.190,17.500 46.500,17.500 ZM60.000,12.250 C60.000,11.009 58.991,10.000 57.750,10.000 L47.750,10.000 L47.750,11.547 C49.749,12.187 51.210,14.041 51.210,16.250 C51.210,18.985 48.985,21.210 46.250,21.210 C43.515,21.210 41.290,18.985 41.290,16.250 C41.290,13.857 42.993,11.855 45.250,11.391 L45.250,10.000 L32.750,10.000 L32.750,11.469 C34.878,12.027 36.460,13.949 36.460,16.250 C36.460,18.985 34.235,21.210 31.500,21.210 C28.765,21.210 26.540,18.985 26.540,16.250 C26.540,13.949 28.122,12.027 30.250,11.469 L30.250,10.000 L17.750,10.000 L17.750,11.469 C19.878,12.027 21.460,13.949 21.460,16.250 C21.460,18.985 19.235,21.210 16.500,21.210 C13.765,21.210 11.540,18.985 11.540,16.250 C11.540,13.949 13.122,12.027 15.250,11.469 L15.250,10.000 L4.750,10.000 C3.509,10.000 2.500,11.009 2.500,12.250 L2.500,57.750 C2.500,58.991 3.509,60.000 4.750,60.000 L57.750,60.000 C58.991,60.000 60.000,58.991 60.000,57.750 L60.000,12.250 ZM50.250,55.000 L12.250,55.000 C9.631,55.000 7.500,52.869 7.500,50.250 L7.500,27.493 C7.500,24.874 9.631,22.743 12.250,22.743 L50.250,22.743 C52.869,22.743 55.000,24.874 55.000,27.493 L55.000,50.250 C55.000,52.869 52.869,55.000 50.250,55.000 ZM52.500,27.493 C52.500,26.252 51.491,25.243 50.250,25.243 L12.250,25.243 C11.009,25.243 10.000,26.252 10.000,27.493 L10.000,50.250 C10.000,51.491 11.009,52.500 12.250,52.500 L50.250,52.500 C51.491,52.500 52.500,51.491 52.500,50.250 L52.500,27.493 ZM38.700,45.990 C38.613,46.043 38.366,46.131 38.068,46.131 C37.540,46.131 37.048,45.586 37.048,45.041 C37.048,44.620 37.241,44.339 37.488,44.163 C39.527,42.634 40.422,41.070 40.422,38.750 C40.422,36.413 39.527,34.866 37.488,33.337 C37.241,33.161 37.048,32.880 37.048,32.459 C37.048,31.914 37.540,31.369 38.068,31.369 C38.366,31.369 38.613,31.457 38.700,31.510 C41.582,33.249 43.076,35.552 43.076,38.750 C43.076,41.948 41.582,44.251 38.700,45.990 ZM35.591,42.704 C35.591,43.460 35.028,43.935 34.361,43.935 C33.834,43.935 33.465,43.689 33.113,43.249 L31.215,40.753 L29.317,43.249 C29.001,43.636 28.632,43.935 28.157,43.935 C27.454,43.935 26.909,43.442 26.909,42.774 C26.909,42.405 27.050,42.124 27.278,41.860 L29.686,39.014 L27.489,36.483 C27.191,36.132 27.050,35.816 27.050,35.464 C27.050,34.708 27.612,34.234 28.280,34.234 C28.807,34.234 29.176,34.480 29.528,34.919 L31.268,37.238 L33.043,34.919 C33.359,34.532 33.728,34.234 34.203,34.234 C34.906,34.234 35.450,34.726 35.450,35.394 C35.450,35.763 35.292,36.044 35.081,36.308 L32.797,38.979 L35.151,41.685 C35.450,42.036 35.591,42.353 35.591,42.704 ZM25.013,44.163 C25.259,44.339 25.452,44.620 25.452,45.041 C25.452,45.586 24.960,46.131 24.433,46.131 C24.134,46.131 23.888,46.043 23.800,45.990 C20.918,44.251 19.424,41.948 19.424,38.750 C19.424,35.552 20.918,33.249 23.800,31.510 C23.888,31.457 24.134,31.369 24.433,31.369 C24.960,31.369 25.452,31.914 25.452,32.459 C25.452,32.880 25.259,33.161 25.013,33.337 C22.974,34.866 22.078,36.430 22.078,38.750 C22.078,41.087 22.974,42.634 25.013,44.163 Z" class="cls-1"/>
</svg>
