<svg xmlns="http://www.w3.org/2000/svg" xmlns:xlink="http://www.w3.org/1999/xlink" preserveAspectRatio="xMidYMid" width="62.344" height="61.969" viewBox="0 0 62.344 61.969">
  <defs>
    <style>
      .cls-1 {
        fill: #fff;
        fill-rule: evenodd;
      }
    </style>
  </defs>
  <path d="M54.706,44.533 C54.480,44.919 54.068,45.150 53.629,45.150 C53.573,45.150 53.517,45.146 53.461,45.139 C52.961,45.071 52.552,44.709 52.424,44.222 L42.109,5.076 L32.594,27.391 C32.399,27.851 31.947,28.149 31.448,28.149 L8.733,28.149 C8.044,28.149 7.486,27.591 7.486,26.903 C7.486,26.215 8.044,25.658 8.733,25.658 L30.624,25.658 L41.242,0.756 C41.451,0.266 41.948,-0.041 42.479,0.001 C43.010,0.040 43.458,0.412 43.594,0.926 L54.069,40.681 L60.010,30.510 C60.357,29.917 61.120,29.716 61.715,30.062 C62.309,30.409 62.510,31.172 62.163,31.766 L54.706,44.533 ZM27.181,21.173 L15.595,21.173 C15.035,21.173 14.544,20.800 14.394,20.261 L12.462,13.306 L9.932,22.259 C9.781,22.796 9.291,23.166 8.733,23.166 L1.254,23.166 C0.565,23.166 0.007,22.609 0.007,21.921 C0.007,21.233 0.565,20.675 1.254,20.675 L7.789,20.675 L11.273,8.238 C11.424,7.701 11.914,7.223 12.472,7.223 C12.473,7.223 12.474,7.223 12.475,7.223 C13.034,7.223 13.524,7.705 13.674,8.243 L16.543,18.682 L27.181,18.682 C27.870,18.682 28.428,19.240 28.428,19.928 C28.428,20.616 27.870,21.173 27.181,21.173 ZM1.254,30.640 L42.638,30.640 C43.326,30.640 43.884,31.198 43.884,31.886 C43.884,32.574 43.326,33.131 42.638,33.131 L1.254,33.131 C0.565,33.131 0.007,32.574 0.007,31.886 C0.007,31.198 0.565,30.640 1.254,30.640 ZM16.212,38.114 C15.523,38.114 14.965,37.556 14.965,36.868 C14.965,36.180 15.523,35.622 16.212,35.622 L37.153,35.622 C37.842,35.622 38.400,36.180 38.400,36.868 C38.400,37.556 37.842,38.114 37.153,38.114 L16.212,38.114 ZM1.254,37.615 L8.733,37.615 C9.222,37.615 9.666,37.902 9.868,38.347 L18.524,57.417 L23.781,42.921 C23.960,42.428 24.429,42.100 24.953,42.100 L48.621,42.100 C49.310,42.100 49.868,42.657 49.868,43.345 C49.868,44.033 49.310,44.591 48.621,44.591 L25.828,44.591 L19.825,61.141 C19.652,61.617 19.208,61.941 18.702,61.961 C18.686,61.962 18.669,61.962 18.653,61.962 C18.166,61.962 17.721,61.678 17.518,61.231 L7.929,40.107 L1.254,40.107 C0.565,40.107 0.007,39.549 0.007,38.861 C0.007,38.173 0.565,37.615 1.254,37.615 ZM31.170,48.577 L61.086,48.577 C61.775,48.577 62.333,49.134 62.333,49.822 C62.333,50.510 61.775,51.068 61.086,51.068 L31.170,51.068 C30.481,51.068 29.923,50.510 29.923,49.822 C29.923,49.134 30.481,48.577 31.170,48.577 ZM37.153,55.054 L53.607,55.054 C54.296,55.054 54.854,55.612 54.854,56.300 C54.854,56.988 54.296,57.545 53.607,57.545 L37.153,57.545 C36.465,57.545 35.907,56.988 35.907,56.300 C35.907,55.612 36.465,55.054 37.153,55.054 Z" class="cls-1"/>
</svg>
