<svg xmlns="http://www.w3.org/2000/svg" xmlns:xlink="http://www.w3.org/1999/xlink" preserveAspectRatio="xMidYMid" width="63" height="62.5" viewBox="0 0 63 62.5">
  <defs>
    <style>
      .cls-1 {
        fill: #fff;
        fill-rule: evenodd;
      }
    </style>
  </defs>
  <path d="M58.000,10.000 C55.766,10.000 53.869,8.526 53.231,6.500 L28.769,6.500 C28.131,8.526 26.234,10.000 24.000,10.000 C21.766,10.000 19.869,8.526 19.231,6.500 L9.769,6.500 C9.131,8.526 7.234,10.000 5.000,10.000 C2.243,10.000 -0.000,7.757 -0.000,5.000 C-0.000,2.243 2.243,0.000 5.000,0.000 C7.414,0.000 9.435,1.721 9.899,4.000 L19.101,4.000 C19.565,1.721 21.586,0.000 24.000,0.000 C26.414,0.000 28.435,1.721 28.899,4.000 L53.101,4.000 C53.565,1.721 55.586,0.000 58.000,0.000 C60.757,0.000 63.000,2.243 63.000,5.000 C63.000,7.757 60.757,10.000 58.000,10.000 ZM5.000,2.500 C3.622,2.500 2.500,3.622 2.500,5.000 C2.500,6.378 3.622,7.500 5.000,7.500 C6.378,7.500 7.500,6.378 7.500,5.000 C7.500,3.622 6.378,2.500 5.000,2.500 ZM24.000,2.500 C22.622,2.500 21.500,3.622 21.500,5.000 C21.500,6.378 22.622,7.500 24.000,7.500 C25.378,7.500 26.500,6.378 26.500,5.000 C26.500,3.622 25.378,2.500 24.000,2.500 ZM58.000,2.500 C56.622,2.500 55.500,3.622 55.500,5.000 C55.500,6.378 56.622,7.500 58.000,7.500 C59.378,7.500 60.500,6.378 60.500,5.000 C60.500,3.622 59.378,2.500 58.000,2.500 ZM5.500,33.500 C7.914,33.500 9.935,35.221 10.399,37.500 L12.601,37.500 C13.065,35.221 15.086,33.500 17.500,33.500 C19.914,33.500 21.935,35.221 22.399,37.500 L34.101,37.500 C34.565,35.221 36.586,33.500 39.000,33.500 C41.757,33.500 44.000,35.743 44.000,38.500 C44.000,41.257 41.757,43.500 39.000,43.500 C36.766,43.500 34.869,42.026 34.231,40.000 L22.269,40.000 C21.631,42.026 19.734,43.500 17.500,43.500 C15.266,43.500 13.369,42.026 12.731,40.000 L10.269,40.000 C9.631,42.026 7.734,43.500 5.500,43.500 C2.743,43.500 0.500,41.257 0.500,38.500 C0.500,35.743 2.743,33.500 5.500,33.500 ZM36.551,39.000 C36.626,39.372 36.792,39.708 37.013,40.000 C37.470,40.603 38.187,41.000 39.000,41.000 C40.378,41.000 41.500,39.878 41.500,38.500 C41.500,37.122 40.378,36.000 39.000,36.000 C37.977,36.000 37.099,36.619 36.712,37.500 C36.577,37.807 36.500,38.144 36.500,38.500 C36.500,38.671 36.518,38.838 36.551,39.000 ZM15.051,39.000 C15.126,39.372 15.292,39.708 15.513,40.000 C15.970,40.603 16.686,41.000 17.500,41.000 C18.313,41.000 19.030,40.603 19.487,40.000 C19.708,39.708 19.874,39.372 19.949,39.000 C19.982,38.838 20.000,38.671 20.000,38.500 C20.000,38.144 19.923,37.807 19.788,37.500 C19.401,36.619 18.523,36.000 17.500,36.000 C16.478,36.000 15.599,36.619 15.212,37.500 C15.077,37.807 15.000,38.144 15.000,38.500 C15.000,38.671 15.018,38.838 15.051,39.000 ZM5.500,41.000 C6.314,41.000 7.030,40.603 7.487,40.000 C7.708,39.708 7.874,39.372 7.949,39.000 C7.982,38.838 8.000,38.671 8.000,38.500 C8.000,38.144 7.923,37.807 7.788,37.500 C7.401,36.619 6.522,36.000 5.500,36.000 C4.122,36.000 3.000,37.122 3.000,38.500 C3.000,39.878 4.122,41.000 5.500,41.000 ZM49.731,25.000 L40.399,25.000 C39.935,27.279 37.914,29.000 35.500,29.000 C33.086,29.000 31.065,27.279 30.601,25.000 L14.269,25.000 C13.631,27.026 11.734,28.500 9.500,28.500 C6.743,28.500 4.500,26.257 4.500,23.500 C4.500,20.743 6.743,18.500 9.500,18.500 C11.914,18.500 13.935,20.221 14.399,22.500 L30.731,22.500 C31.369,20.474 33.266,19.000 35.500,19.000 C37.734,19.000 39.631,20.474 40.269,22.500 L49.601,22.500 C50.065,20.221 52.086,18.500 54.500,18.500 C57.257,18.500 59.500,20.743 59.500,23.500 C59.500,26.257 57.257,28.500 54.500,28.500 C52.266,28.500 50.369,27.026 49.731,25.000 ZM9.500,21.000 C8.122,21.000 7.000,22.122 7.000,23.500 C7.000,24.878 8.122,26.000 9.500,26.000 C10.878,26.000 12.000,24.878 12.000,23.500 C12.000,22.122 10.878,21.000 9.500,21.000 ZM35.500,21.500 C34.122,21.500 33.000,22.622 33.000,24.000 C33.000,25.378 34.122,26.500 35.500,26.500 C36.878,26.500 38.000,25.378 38.000,24.000 C38.000,22.622 36.878,21.500 35.500,21.500 ZM57.000,23.500 C57.000,22.122 55.878,21.000 54.500,21.000 C53.122,21.000 52.000,22.122 52.000,23.500 C52.000,24.878 53.122,26.000 54.500,26.000 C55.878,26.000 57.000,24.878 57.000,23.500 ZM5.500,52.000 C7.914,52.000 9.935,53.721 10.399,56.000 L53.231,56.000 C53.869,53.974 55.766,52.500 58.000,52.500 C60.757,52.500 63.000,54.743 63.000,57.500 C63.000,60.257 60.757,62.500 58.000,62.500 C55.586,62.500 53.565,60.779 53.101,58.500 L10.269,58.500 C9.631,60.526 7.734,62.000 5.500,62.000 C2.743,62.000 0.500,59.757 0.500,57.000 C0.500,54.243 2.743,52.000 5.500,52.000 ZM55.712,58.500 C56.099,59.381 56.978,60.000 58.000,60.000 C59.378,60.000 60.500,58.878 60.500,57.500 C60.500,56.122 59.378,55.000 58.000,55.000 C57.187,55.000 56.470,55.396 56.013,56.000 C55.696,56.419 55.500,56.935 55.500,57.500 C55.500,57.856 55.577,58.193 55.712,58.500 ZM5.500,59.500 C6.314,59.500 7.030,59.103 7.487,58.500 C7.708,58.208 7.874,57.872 7.949,57.500 C7.982,57.338 8.000,57.171 8.000,57.000 C8.000,56.644 7.923,56.307 7.788,56.000 C7.401,55.119 6.522,54.500 5.500,54.500 C4.122,54.500 3.000,55.622 3.000,57.000 C3.000,58.378 4.122,59.500 5.500,59.500 Z" class="cls-1"/>
</svg>
