<svg xmlns="http://www.w3.org/2000/svg" xmlns:xlink="http://www.w3.org/1999/xlink" preserveAspectRatio="xMidYMid" width="62" height="60" viewBox="0 0 62 60">
  <defs>
    <style>
      .cls-1 {
        fill: #5f6764;
        fill-rule: evenodd;
      }
    </style>
  </defs>
  <path d="M57.000,42.000 C54.243,42.000 52.000,39.757 52.000,37.000 C52.000,36.911 52.009,36.824 52.013,36.736 L48.219,35.538 C48.494,34.757 48.720,33.953 48.887,33.127 L52.766,34.352 C53.652,32.942 55.216,32.000 57.000,32.000 C59.757,32.000 62.000,34.243 62.000,37.000 C62.000,39.757 59.757,42.000 57.000,42.000 ZM57.000,34.500 C55.622,34.500 54.500,35.622 54.500,37.000 C54.500,38.378 55.622,39.500 57.000,39.500 C58.378,39.500 59.500,38.378 59.500,37.000 C59.500,35.622 58.378,34.500 57.000,34.500 ZM46.000,10.500 C45.487,10.500 44.992,10.422 44.525,10.277 L41.757,14.770 C41.086,14.278 40.381,13.830 39.645,13.432 L42.400,8.961 C41.535,8.061 41.000,6.843 41.000,5.500 C41.000,2.743 43.243,0.500 46.000,0.500 C48.757,0.500 51.000,2.743 51.000,5.500 C51.000,8.257 48.757,10.500 46.000,10.500 ZM46.000,3.000 C44.622,3.000 43.500,4.122 43.500,5.500 C43.500,6.878 44.622,8.000 46.000,8.000 C47.378,8.000 48.500,6.878 48.500,5.500 C48.500,4.122 47.378,3.000 46.000,3.000 ZM47.250,29.500 C47.250,34.449 45.023,38.886 41.522,41.869 L40.262,39.653 C43.018,37.137 44.750,33.517 44.750,29.500 C44.750,21.918 38.582,15.750 31.000,15.750 C28.239,15.750 25.668,16.571 23.511,17.977 L21.649,16.223 C24.295,14.353 27.520,13.250 31.000,13.250 C39.960,13.250 47.250,20.540 47.250,29.500 ZM15.588,34.640 C15.047,33.023 14.750,31.296 14.750,29.500 C14.750,26.365 15.645,23.436 17.189,20.951 L19.053,22.707 C17.908,24.713 17.250,27.030 17.250,29.500 C17.250,30.840 17.446,32.135 17.805,33.360 L15.588,34.640 ZM9.379,7.409 L25.562,22.658 C27.056,21.467 28.945,20.750 31.000,20.750 C35.825,20.750 39.750,24.675 39.750,29.500 C39.750,31.643 38.973,33.606 37.689,35.129 L36.333,32.743 C36.911,31.796 37.250,30.688 37.250,29.500 C37.250,26.054 34.446,23.250 31.000,23.250 C27.554,23.250 24.750,26.054 24.750,29.500 C24.750,32.795 27.315,35.496 30.552,35.727 L31.956,38.195 C31.641,38.229 31.323,38.250 31.000,38.250 C28.216,38.250 25.736,36.938 24.133,34.905 L9.814,43.166 C9.932,43.591 10.000,44.037 10.000,44.500 C10.000,44.814 9.967,45.120 9.912,45.418 C9.479,47.737 7.443,49.500 5.000,49.500 C2.243,49.500 0.000,47.257 0.000,44.500 C0.000,41.743 2.243,39.500 5.000,39.500 C5.583,39.500 6.141,39.605 6.661,39.790 C7.387,40.046 8.037,40.462 8.565,41.000 L22.880,32.742 C22.478,31.738 22.250,30.646 22.250,29.500 C22.250,27.631 22.844,25.900 23.847,24.477 L7.661,9.225 C7.032,9.623 6.311,9.887 5.535,9.970 C5.359,9.989 5.181,10.000 5.000,10.000 C2.243,10.000 0.000,7.757 0.000,5.000 C0.000,2.243 2.243,0.000 5.000,0.000 C7.757,0.000 10.000,2.243 10.000,5.000 C10.000,5.079 9.992,5.156 9.988,5.235 C9.951,6.020 9.738,6.758 9.379,7.409 ZM5.000,42.000 C3.622,42.000 2.500,43.122 2.500,44.500 C2.500,45.878 3.622,47.000 5.000,47.000 C6.378,47.000 7.500,45.878 7.500,44.500 C7.500,43.122 6.378,42.000 5.000,42.000 ZM5.000,2.500 C3.622,2.500 2.500,3.622 2.500,5.000 C2.500,6.378 3.622,7.500 5.000,7.500 C6.378,7.500 7.500,6.378 7.500,5.000 C7.500,3.622 6.378,2.500 5.000,2.500 ZM31.000,43.250 C32.232,43.250 33.426,43.085 34.562,42.779 L35.834,45.016 C34.307,45.493 32.683,45.750 31.000,45.750 C26.166,45.750 21.822,43.626 18.842,40.266 L21.061,38.986 C23.566,41.610 27.094,43.250 31.000,43.250 ZM41.866,51.577 L29.664,30.118 C29.322,29.518 29.532,28.754 30.132,28.414 C30.731,28.071 31.496,28.282 31.836,28.882 L43.980,50.238 C44.460,50.085 44.970,50.000 45.500,50.000 C45.729,50.000 45.953,50.021 46.174,50.051 C48.613,50.382 50.500,52.472 50.500,55.000 C50.500,57.757 48.257,60.000 45.500,60.000 C42.743,60.000 40.500,57.757 40.500,55.000 C40.500,54.508 40.574,54.034 40.707,53.585 C40.932,52.824 41.335,52.140 41.866,51.577 ZM45.500,57.500 C46.878,57.500 48.000,56.378 48.000,55.000 C48.000,53.622 46.878,52.500 45.500,52.500 C44.122,52.500 43.000,53.622 43.000,55.000 C43.000,56.378 44.122,57.500 45.500,57.500 Z" class="cls-1"/>
</svg>
